<svg width="266" height="266" viewBox="0 0 266 266" fill="none" xmlns="http://www.w3.org/2000/svg">
<path d="M120.544 8.00001C119.715 7.99833 118.904 8.24475 118.216 8.70758C117.528 9.17042 116.994 9.82851 116.683 10.5972C116.372 11.3659 116.298 12.2101 116.47 13.0212C116.643 13.8323 117.054 14.5733 117.651 15.1488L127.66 25.1404C70.5528 27.9833 25.0003 75.1234 25.0003 132.929C24.9494 154.468 31.3793 175.524 43.454 193.36C51.2234 204.863 61.1281 214.768 72.6309 222.537C78.3832 226.419 84.5344 229.769 91.0015 232.504C91.5077 232.742 92.0567 232.876 92.6157 232.896C93.1746 232.917 93.7321 232.825 94.2546 232.625C94.7771 232.426 95.2539 232.123 95.6564 231.734C96.059 231.346 96.379 230.88 96.5973 230.365C96.8156 229.85 96.9277 229.296 96.9269 228.737C96.9261 228.178 96.8124 227.624 96.5926 227.11C96.3728 226.596 96.0515 226.131 95.6478 225.744C95.2442 225.356 94.7665 225.055 94.2434 224.856C82.3939 219.844 71.6276 212.584 62.5395 203.477C53.2588 194.226 45.8988 183.231 40.8829 171.125C35.867 159.019 33.2943 146.041 33.3128 132.937C33.3128 79.9364 74.5428 36.7779 126.679 33.4778L117.651 42.5135C117.266 42.8999 116.96 43.3586 116.751 43.8633C116.542 44.368 116.435 44.9088 116.435 45.4549C116.436 46.001 116.544 46.5417 116.753 47.0461C116.963 47.5505 117.269 48.0087 117.656 48.3946C118.042 48.7805 118.501 49.0865 119.005 49.2951C119.51 49.5037 120.051 49.6109 120.597 49.6105C121.143 49.6101 121.684 49.5022 122.188 49.2929C122.693 49.0835 123.151 48.7769 123.537 48.3904L140.162 31.7654C140.55 31.3792 140.858 30.92 141.068 30.4143C141.279 29.9086 141.387 29.3663 141.387 28.8187C141.387 28.271 141.279 27.7287 141.068 27.223C140.858 26.7173 140.55 26.2581 140.162 25.8719L123.537 9.26351C123.148 8.86278 122.683 8.54438 122.169 8.32731C121.655 8.11023 121.102 7.99892 120.544 8.00001Z" fill="white"/>
<path fill-rule="evenodd" clip-rule="evenodd" d="M133.063 66.4369C96.388 66.4369 66.5628 96.2538 66.5628 132.937C66.5628 169.612 96.388 199.437 133.063 199.437C169.738 199.437 199.563 169.612 199.563 132.937C199.563 96.2538 169.738 66.4369 133.063 66.4369ZM133.063 74.7494C165.249 74.7494 191.25 100.743 191.25 132.937C191.25 165.115 165.249 191.124 133.063 191.124C100.877 191.124 74.8753 165.115 74.8753 132.937C74.8753 100.743 100.877 74.7494 133.063 74.7494Z" fill="url(#paint0_linear_1707_1427)"/>
<path d="M173.096 33.0206C172.16 33.0938 171.277 33.4816 170.589 34.1209C169.902 34.7601 169.451 35.6132 169.311 36.5412C169.17 37.4693 169.347 38.4176 169.814 39.2318C170.281 40.0461 171.01 40.6783 171.882 41.0256C183.732 46.0372 194.498 53.2976 203.586 62.4053C212.859 71.6584 220.215 82.6513 225.23 94.7533C230.245 106.855 232.822 119.828 232.813 132.929C232.813 186.062 191.358 229.287 139.006 232.371L148.474 222.911C149.074 222.327 149.484 221.575 149.649 220.754C149.814 219.933 149.728 219.081 149.401 218.31C149.074 217.539 148.521 216.885 147.816 216.434C147.111 215.982 146.286 215.754 145.448 215.779C144.37 215.808 143.344 216.255 142.589 217.026L125.964 233.651C125.577 234.037 125.27 234.496 125.06 235.001C124.851 235.506 124.743 236.047 124.743 236.594C124.743 237.14 124.851 237.682 125.06 238.187C125.27 238.692 125.577 239.15 125.964 239.536L142.589 256.161C142.975 256.548 143.433 256.854 143.937 257.064C144.442 257.273 144.983 257.381 145.529 257.381C146.075 257.382 146.616 257.275 147.12 257.066C147.625 256.857 148.084 256.551 148.47 256.166C148.856 255.78 149.163 255.321 149.372 254.817C149.582 254.313 149.69 253.772 149.69 253.226C149.69 252.68 149.583 252.139 149.375 251.634C149.166 251.13 148.86 250.671 148.474 250.284L138.882 240.7C195.806 237.649 241.125 190.592 241.125 132.929C241.173 111.395 234.743 90.345 222.672 72.5133C210.938 55.1428 194.423 41.544 175.124 33.3614C174.617 33.1424 174.072 33.0265 173.52 33.0206C173.381 33.0137 173.234 33.0137 173.096 33.0206Z" fill="url(#paint1_linear_1707_1427)"/>
<path d="M151.02 161C138.614 161 128.521 150.906 128.521 138.5C128.521 126.093 138.614 116 151.02 116C163.427 116 173.52 126.093 173.52 138.5C173.52 150.906 163.427 161 151.02 161ZM151.02 118.25C139.855 118.25 130.771 127.334 130.771 138.5C130.771 149.665 139.855 158.75 151.02 158.75C162.186 158.75 171.27 149.665 171.27 138.5C171.27 127.334 162.186 118.25 151.02 118.25Z" fill="url(#paint2_linear_1707_1427)"/>
<path d="M151.02 154.25C142.335 154.25 135.271 147.185 135.271 138.5C135.271 129.815 142.335 122.75 151.02 122.75C159.705 122.75 166.77 129.815 166.77 138.5C166.77 147.185 159.705 154.25 151.02 154.25ZM151.02 125C143.576 125 137.521 131.056 137.521 138.5C137.521 145.944 143.576 152 151.02 152C158.465 152 164.52 145.944 164.52 138.5C164.52 131.056 158.465 125 151.02 125Z" fill="url(#paint3_linear_1707_1427)"/>
<path d="M145.395 161H101.521V152H135.27V154.25H103.771V158.75H145.395V161Z" fill="url(#paint4_linear_1707_1427)"/>
<path d="M135.271 154.25H103.771V145.25H131.896V147.5H106.021V152H135.271V154.25Z" fill="url(#paint5_linear_1707_1427)"/>
<path d="M131.895 147.5H106.021V138.5H130.77V140.75H108.271V145.25H131.895V147.5Z" fill="url(#paint6_linear_1707_1427)"/>
<path d="M130.77 140.75H101.521V131.75H130.77V134H103.771V138.5H130.77V140.75Z" fill="url(#paint7_linear_1707_1427)"/>
<path d="M130.771 134H103.771V125H134.146V127.25H106.021V131.75H130.771V134Z" fill="url(#paint8_linear_1707_1427)"/>
<path d="M134.145 127.25H101.521V118.25H140.895V120.5H103.771V125H134.145V127.25Z" fill="url(#paint9_linear_1707_1427)"/>
<path d="M140.896 120.5H103.771V111.5H147.646V118.25H145.396V113.75H106.021V118.25H140.896V120.5Z" fill="url(#paint10_linear_1707_1427)"/>
<path d="M145.395 113.75H101.521V104.75H145.395V113.75ZM103.771 111.5H143.145V107H103.771V111.5Z" fill="url(#paint11_linear_1707_1427)"/>
<defs>
<linearGradient id="paint0_linear_1707_1427" x1="193.262" y1="-86.9567" x2="-37.158" y2="-47.9781" gradientUnits="userSpaceOnUse">
<stop stop-color="#33BBCF"/>
<stop offset="0.552083" stop-color="#DEF9FA"/>
<stop offset="1" stop-color="#33BBCF"/>
</linearGradient>
<linearGradient id="paint1_linear_1707_1427" x1="193.262" y1="-86.9567" x2="-37.158" y2="-47.9781" gradientUnits="userSpaceOnUse">
<stop stop-color="white"/>
<stop offset="1" stop-color="#DEF9FA"/>
</linearGradient>
<linearGradient id="paint2_linear_1707_1427" x1="176.305" y1="120.673" x2="125.805" y2="124.759" gradientUnits="userSpaceOnUse">
<stop stop-color="#33BBCF"/>
<stop offset="0.510417" stop-color="#DEF9FA"/>
<stop offset="1" stop-color="#33BBCF"/>
</linearGradient>
<linearGradient id="paint3_linear_1707_1427" x1="168.719" y1="126.021" x2="133.37" y2="128.882" gradientUnits="userSpaceOnUse">
<stop stop-color="#33BBCF"/>
<stop offset="0.510417" stop-color="#DEF9FA"/>
<stop offset="1" stop-color="#33BBCF"/>
</linearGradient>
<linearGradient id="paint4_linear_1707_1427" x1="148.11" y1="152.935" x2="105.225" y2="169.853" gradientUnits="userSpaceOnUse">
<stop stop-color="#33BBCF"/>
<stop offset="0.510417" stop-color="#DEF9FA"/>
<stop offset="1" stop-color="#33BBCF"/>
</linearGradient>
<linearGradient id="paint5_linear_1707_1427" x1="137.22" y1="146.184" x2="104.281" y2="155.514" gradientUnits="userSpaceOnUse">
<stop stop-color="#33BBCF"/>
<stop offset="0.510417" stop-color="#DEF9FA"/>
<stop offset="1" stop-color="#33BBCF"/>
</linearGradient>
<linearGradient id="paint6_linear_1707_1427" x1="133.496" y1="139.435" x2="105.77" y2="145.885" gradientUnits="userSpaceOnUse">
<stop stop-color="#33BBCF"/>
<stop offset="0.510417" stop-color="#DEF9FA"/>
<stop offset="1" stop-color="#33BBCF"/>
</linearGradient>
<linearGradient id="paint7_linear_1707_1427" x1="132.58" y1="132.684" x2="101.678" y2="140.812" gradientUnits="userSpaceOnUse">
<stop stop-color="#33BBCF"/>
<stop offset="0.510417" stop-color="#DEF9FA"/>
<stop offset="1" stop-color="#33BBCF"/>
</linearGradient>
<linearGradient id="paint8_linear_1707_1427" x1="136.026" y1="125.935" x2="104.097" y2="134.655" gradientUnits="userSpaceOnUse">
<stop stop-color="#33BBCF"/>
<stop offset="0.510417" stop-color="#DEF9FA"/>
<stop offset="1" stop-color="#33BBCF"/>
</linearGradient>
<linearGradient id="paint9_linear_1707_1427" x1="143.332" y1="119.184" x2="103.809" y2="133.177" gradientUnits="userSpaceOnUse">
<stop stop-color="#33BBCF"/>
<stop offset="0.510417" stop-color="#DEF9FA"/>
<stop offset="1" stop-color="#33BBCF"/>
</linearGradient>
<linearGradient id="paint10_linear_1707_1427" x1="150.361" y1="112.435" x2="107.476" y2="129.353" gradientUnits="userSpaceOnUse">
<stop stop-color="#33BBCF"/>
<stop offset="0.510417" stop-color="#DEF9FA"/>
<stop offset="1" stop-color="#33BBCF"/>
</linearGradient>
<linearGradient id="paint11_linear_1707_1427" x1="148.11" y1="105.685" x2="105.225" y2="122.603" gradientUnits="userSpaceOnUse">
<stop stop-color="#33BBCF"/>
<stop offset="0.510417" stop-color="#DEF9FA"/>
<stop offset="1" stop-color="#33BBCF"/>
</linearGradient>
</defs>
</svg>
