<svg width="551" height="300" viewBox="0 0 551 300" fill="none" xmlns="http://www.w3.org/2000/svg">
<path d="M120.544 25C119.715 24.9983 118.904 25.2447 118.216 25.7076C117.528 26.1704 116.994 26.8285 116.683 27.5972C116.372 28.3659 116.298 29.2101 116.47 30.0212C116.643 30.8323 117.054 31.5733 117.651 32.1488L127.66 42.1404C70.5528 44.9833 25.0003 92.1234 25.0003 149.929C24.9494 171.468 31.3793 192.524 43.454 210.36C51.2234 221.863 61.1281 231.768 72.6309 239.537C78.3832 243.419 84.5344 246.769 91.0015 249.504C91.5077 249.742 92.0567 249.876 92.6157 249.896C93.1746 249.917 93.7321 249.825 94.2546 249.625C94.7771 249.426 95.2539 249.123 95.6564 248.734C96.059 248.346 96.379 247.88 96.5973 247.365C96.8156 246.85 96.9277 246.296 96.9269 245.737C96.9261 245.178 96.8124 244.624 96.5926 244.11C96.3728 243.596 96.0515 243.131 95.6478 242.744C95.2442 242.356 94.7665 242.055 94.2434 241.856C82.3939 236.844 71.6276 229.584 62.5395 220.477C53.2588 211.226 45.8988 200.231 40.8829 188.125C35.867 176.019 33.2943 163.041 33.3128 149.937C33.3128 96.9364 74.5428 53.7779 126.679 50.4778L117.651 59.5135C117.266 59.8999 116.96 60.3586 116.751 60.8633C116.542 61.368 116.435 61.9088 116.435 62.4549C116.436 63.001 116.544 63.5417 116.753 64.0461C116.963 64.5505 117.269 65.0087 117.656 65.3946C118.042 65.7805 118.501 66.0865 119.005 66.2951C119.51 66.5037 120.051 66.6109 120.597 66.6105C121.143 66.6101 121.684 66.5022 122.188 66.2929C122.693 66.0835 123.151 65.7769 123.537 65.3904L140.162 48.7654C140.55 48.3792 140.858 47.92 141.068 47.4143C141.279 46.9086 141.387 46.3663 141.387 45.8187C141.387 45.271 141.279 44.7287 141.068 44.223C140.858 43.7173 140.55 43.2581 140.162 42.8719L123.537 26.2635C123.148 25.8628 122.683 25.5444 122.169 25.3273C121.655 25.1102 121.102 24.9989 120.544 25Z" fill="white"/>
<path fill-rule="evenodd" clip-rule="evenodd" d="M133.063 83.4369C96.388 83.4369 66.5628 113.254 66.5628 149.937C66.5628 186.612 96.388 216.437 133.063 216.437C169.738 216.437 199.563 186.612 199.563 149.937C199.563 113.254 169.738 83.4369 133.063 83.4369ZM133.063 91.7494C165.249 91.7494 191.25 117.743 191.25 149.937C191.25 182.115 165.249 208.124 133.063 208.124C100.877 208.124 74.8753 182.115 74.8753 149.937C74.8753 117.743 100.877 91.7494 133.063 91.7494Z" fill="url(#paint0_linear_1707_1426)"/>
<path d="M173.096 50.0206C172.16 50.0938 171.277 50.4816 170.589 51.1209C169.902 51.7601 169.451 52.6132 169.311 53.5412C169.17 54.4693 169.347 55.4176 169.814 56.2318C170.281 57.0461 171.01 57.6783 171.882 58.0256C183.732 63.0372 194.498 70.2976 203.586 79.4053C212.859 88.6584 220.215 99.6513 225.23 111.753C230.245 123.855 232.822 136.828 232.813 149.929C232.813 203.062 191.358 246.287 139.006 249.371L148.474 239.911C149.074 239.327 149.484 238.575 149.649 237.754C149.814 236.933 149.728 236.081 149.401 235.31C149.074 234.539 148.521 233.885 147.816 233.434C147.111 232.982 146.286 232.754 145.448 232.779C144.37 232.808 143.344 233.255 142.589 234.026L125.964 250.651C125.577 251.037 125.27 251.496 125.06 252.001C124.851 252.506 124.743 253.047 124.743 253.594C124.743 254.14 124.851 254.682 125.06 255.187C125.27 255.692 125.577 256.15 125.964 256.536L142.589 273.161C142.975 273.548 143.433 273.854 143.937 274.064C144.442 274.273 144.983 274.381 145.529 274.381C146.075 274.382 146.616 274.275 147.12 274.066C147.625 273.857 148.084 273.551 148.47 273.166C148.856 272.78 149.163 272.321 149.372 271.817C149.582 271.313 149.69 270.772 149.69 270.226C149.69 269.68 149.583 269.139 149.375 268.634C149.166 268.13 148.86 267.671 148.474 267.284L138.882 257.7C195.806 254.649 241.125 207.592 241.125 149.929C241.173 128.395 234.743 107.345 222.672 89.5133C210.938 72.1428 194.423 58.544 175.124 50.3614C174.617 50.1424 174.072 50.0265 173.52 50.0206C173.381 50.0137 173.234 50.0137 173.096 50.0206Z" fill="url(#paint1_linear_1707_1426)"/>
<path d="M151.02 178C138.614 178 128.521 167.906 128.521 155.5C128.521 143.093 138.614 133 151.02 133C163.427 133 173.52 143.093 173.52 155.5C173.52 167.906 163.427 178 151.02 178ZM151.02 135.25C139.855 135.25 130.771 144.334 130.771 155.5C130.771 166.665 139.855 175.75 151.02 175.75C162.186 175.75 171.27 166.665 171.27 155.5C171.27 144.334 162.186 135.25 151.02 135.25Z" fill="url(#paint2_linear_1707_1426)"/>
<path d="M151.02 171.25C142.335 171.25 135.271 164.185 135.271 155.5C135.271 146.815 142.335 139.75 151.02 139.75C159.705 139.75 166.77 146.815 166.77 155.5C166.77 164.185 159.705 171.25 151.02 171.25ZM151.02 142C143.576 142 137.521 148.056 137.521 155.5C137.521 162.944 143.576 169 151.02 169C158.465 169 164.52 162.944 164.52 155.5C164.52 148.056 158.465 142 151.02 142Z" fill="url(#paint3_linear_1707_1426)"/>
<path d="M145.395 178H101.521V169H135.27V171.25H103.771V175.75H145.395V178Z" fill="url(#paint4_linear_1707_1426)"/>
<path d="M135.271 171.25H103.771V162.25H131.896V164.5H106.021V169H135.271V171.25Z" fill="url(#paint5_linear_1707_1426)"/>
<path d="M131.895 164.5H106.021V155.5H130.77V157.75H108.271V162.25H131.895V164.5Z" fill="url(#paint6_linear_1707_1426)"/>
<path d="M130.77 157.75H101.521V148.75H130.77V151H103.771V155.5H130.77V157.75Z" fill="url(#paint7_linear_1707_1426)"/>
<path d="M130.771 151H103.771V142H134.146V144.25H106.021V148.75H130.771V151Z" fill="url(#paint8_linear_1707_1426)"/>
<path d="M134.145 144.25H101.521V135.25H140.895V137.5H103.771V142H134.145V144.25Z" fill="url(#paint9_linear_1707_1426)"/>
<path d="M140.896 137.5H103.771V128.5H147.646V135.25H145.396V130.75H106.021V135.25H140.896V137.5Z" fill="url(#paint10_linear_1707_1426)"/>
<path d="M145.395 130.75H101.521V121.75H145.395V130.75ZM103.771 128.5H143.145V124H103.771V128.5Z" fill="url(#paint11_linear_1707_1426)"/>
<path d="M320.8 201.6H367.8V220H298V81H320.8V201.6ZM461.267 148.6C468.734 149.933 475.067 153.867 480.267 160.4C485.467 166.933 488.067 174.333 488.067 182.6C488.067 189.667 486.201 196.067 482.467 201.8C478.867 207.4 473.601 211.867 466.667 215.2C459.734 218.4 451.667 220 442.467 220H386.867V81H439.867C449.334 81 457.467 82.6 464.267 85.8C471.067 89 476.201 93.3333 479.667 98.8C483.134 104.133 484.867 110.133 484.867 116.8C484.867 124.8 482.734 131.467 478.467 136.8C474.201 142.133 468.467 146.067 461.267 148.6ZM409.667 139.4H437.867C445.334 139.4 451.134 137.733 455.267 134.4C459.534 130.933 461.667 126 461.667 119.6C461.667 113.333 459.534 108.467 455.267 105C451.134 101.4 445.334 99.6 437.867 99.6H409.667V139.4ZM440.467 201.4C448.201 201.4 454.267 199.533 458.667 195.8C463.067 192.067 465.267 186.867 465.267 180.2C465.267 173.4 462.934 168 458.267 164C453.601 160 447.401 158 439.667 158H409.667V201.4H440.467ZM535.644 81V220H512.844V81H535.644Z" fill="url(#paint12_linear_1707_1426)"/>
<defs>
<linearGradient id="paint0_linear_1707_1426" x1="193.262" y1="-69.9567" x2="-37.158" y2="-30.9781" gradientUnits="userSpaceOnUse">
<stop stop-color="#33BBCF"/>
<stop offset="0.552083" stop-color="#DEF9FA"/>
<stop offset="1" stop-color="#33BBCF"/>
</linearGradient>
<linearGradient id="paint1_linear_1707_1426" x1="193.262" y1="-69.9567" x2="-37.158" y2="-30.9781" gradientUnits="userSpaceOnUse">
<stop stop-color="white"/>
<stop offset="1" stop-color="#DEF9FA"/>
</linearGradient>
<linearGradient id="paint2_linear_1707_1426" x1="176.305" y1="137.673" x2="125.805" y2="141.759" gradientUnits="userSpaceOnUse">
<stop stop-color="#33BBCF"/>
<stop offset="0.510417" stop-color="#DEF9FA"/>
<stop offset="1" stop-color="#33BBCF"/>
</linearGradient>
<linearGradient id="paint3_linear_1707_1426" x1="168.719" y1="143.021" x2="133.37" y2="145.882" gradientUnits="userSpaceOnUse">
<stop stop-color="#33BBCF"/>
<stop offset="0.510417" stop-color="#DEF9FA"/>
<stop offset="1" stop-color="#33BBCF"/>
</linearGradient>
<linearGradient id="paint4_linear_1707_1426" x1="148.11" y1="169.935" x2="105.225" y2="186.853" gradientUnits="userSpaceOnUse">
<stop stop-color="#33BBCF"/>
<stop offset="0.510417" stop-color="#DEF9FA"/>
<stop offset="1" stop-color="#33BBCF"/>
</linearGradient>
<linearGradient id="paint5_linear_1707_1426" x1="137.22" y1="163.184" x2="104.281" y2="172.514" gradientUnits="userSpaceOnUse">
<stop stop-color="#33BBCF"/>
<stop offset="0.510417" stop-color="#DEF9FA"/>
<stop offset="1" stop-color="#33BBCF"/>
</linearGradient>
<linearGradient id="paint6_linear_1707_1426" x1="133.496" y1="156.435" x2="105.77" y2="162.885" gradientUnits="userSpaceOnUse">
<stop stop-color="#33BBCF"/>
<stop offset="0.510417" stop-color="#DEF9FA"/>
<stop offset="1" stop-color="#33BBCF"/>
</linearGradient>
<linearGradient id="paint7_linear_1707_1426" x1="132.58" y1="149.684" x2="101.678" y2="157.812" gradientUnits="userSpaceOnUse">
<stop stop-color="#33BBCF"/>
<stop offset="0.510417" stop-color="#DEF9FA"/>
<stop offset="1" stop-color="#33BBCF"/>
</linearGradient>
<linearGradient id="paint8_linear_1707_1426" x1="136.026" y1="142.935" x2="104.097" y2="151.655" gradientUnits="userSpaceOnUse">
<stop stop-color="#33BBCF"/>
<stop offset="0.510417" stop-color="#DEF9FA"/>
<stop offset="1" stop-color="#33BBCF"/>
</linearGradient>
<linearGradient id="paint9_linear_1707_1426" x1="143.332" y1="136.184" x2="103.809" y2="150.177" gradientUnits="userSpaceOnUse">
<stop stop-color="#33BBCF"/>
<stop offset="0.510417" stop-color="#DEF9FA"/>
<stop offset="1" stop-color="#33BBCF"/>
</linearGradient>
<linearGradient id="paint10_linear_1707_1426" x1="150.361" y1="129.435" x2="107.476" y2="146.353" gradientUnits="userSpaceOnUse">
<stop stop-color="#33BBCF"/>
<stop offset="0.510417" stop-color="#DEF9FA"/>
<stop offset="1" stop-color="#33BBCF"/>
</linearGradient>
<linearGradient id="paint11_linear_1707_1426" x1="148.11" y1="122.685" x2="105.225" y2="139.603" gradientUnits="userSpaceOnUse">
<stop stop-color="#33BBCF"/>
<stop offset="0.510417" stop-color="#DEF9FA"/>
<stop offset="1" stop-color="#33BBCF"/>
</linearGradient>
<linearGradient id="paint12_linear_1707_1426" x1="567.582" y1="31.1539" x2="266.432" y2="52.9243" gradientUnits="userSpaceOnUse">
<stop stop-color="#33BBCF"/>
<stop offset="0.510417" stop-color="#DEF9FA"/>
<stop offset="1" stop-color="#33BBCF"/>
</linearGradient>
</defs>
</svg>
